HIERARCHY
ROOT Hips
{
 OFFSET 0.000000 0.000000 0.000000
 CHANNELS 6 Xposition Yposition Zposition Yrotation Xrotation Zrotation
 JOINT Chest
 {
  OFFSET 0.000000 9.585900 0.002600
  CHANNELS 3 Yrotation Xrotation Zrotation
  JOINT Chest2
  {
   OFFSET 0.000000 9.601200 -0.005300
   CHANNELS 3 Yrotation Xrotation Zrotation
   JOINT Chest3
   {
    OFFSET 0.000000 9.561800 0.000000
    CHANNELS 3 Yrotation Xrotation Zrotation
    JOINT Chest4
    {
     OFFSET 0.000000 9.552100 0.000000
     CHANNELS 3 Yrotation Xrotation Zrotation
     JOINT Neck
     {
      OFFSET 0.000000 14.453000 0.000000
      CHANNELS 3 Yrotation Xrotation Zrotation
      JOINT Head
      {
       OFFSET 0.000000 8.936500 -0.011300
       CHANNELS 3 Yrotation Xrotation Zrotation
       End Site
       {
        OFFSET 0.000000 17.073600 -0.006000
       }
      }
     }
     JOINT RightCollar
     {
      OFFSET -2.921100 9.558500 0.000000
      CHANNELS 3 Yrotation Xrotation Zrotation
      JOINT RightShoulder
      {
       OFFSET -13.519700 0.000000 0.000000
       CHANNELS 3 Yrotation Xrotation Zrotation
       JOINT RightElbow
       {
        OFFSET 0.000000 -29.696600 0.000000
        CHANNELS 3 Yrotation Xrotation Zrotation
        JOINT RightWrist
        {
         OFFSET 0.000000 -24.004700 0.000000
         CHANNELS 3 Yrotation Xrotation Zrotation
         End Site
         {
          OFFSET 0.000000 -17.728500 0.000000
         }
        }
       }
      }
     }
     JOINT LeftCollar
     {
      OFFSET 2.921100 9.558500 0.000000
      CHANNELS 3 Yrotation Xrotation Zrotation
      JOINT LeftShoulder
      {
       OFFSET 13.519700 0.000000 0.000000
       CHANNELS 3 Yrotation Xrotation Zrotation
       JOINT LeftElbow
       {
        OFFSET 0.000000 -29.696600 0.000000
        CHANNELS 3 Yrotation Xrotation Zrotation
        JOINT LeftWrist
        {
         OFFSET 0.000000 -24.004700 0.000000
         CHANNELS 3 Yrotation Xrotation Zrotation
         End Site
         {
          OFFSET 0.000000 -17.728500 0.000000
         }
        }
       }
      }
     }
    }
   }
  }
 }
 JOINT RightHip
 {
  OFFSET -7.771700 -0.012900 -0.001300
  CHANNELS 3 Yrotation Xrotation Zrotation
  JOINT RightKnee
  {
   OFFSET 0.000000 -40.869800 0.001200
   CHANNELS 3 Yrotation Xrotation Zrotation
   JOINT RightAnkle
   {
    OFFSET 0.000000 -39.717900 0.002100
    CHANNELS 3 Yrotation Xrotation Zrotation
    JOINT RightToe
    {
     OFFSET 0.000000 -4.965400 11.033500
     CHANNELS 3 Yrotation Xrotation Zrotation
     End Site
     {
      OFFSET 0.000000 -1.423100 5.872300
     }
    }
   }
  }
 }
 JOINT LeftHip
 {
  OFFSET 7.771700 -0.012900 -0.001300
  CHANNELS 3 Yrotation Xrotation Zrotation
  JOINT LeftKnee
  {
   OFFSET 0.000000 -40.869800 0.001200
   CHANNELS 3 Yrotation Xrotation Zrotation
   JOINT LeftAnkle
   {
    OFFSET 0.000000 -39.717900 0.002100
    CHANNELS 3 Yrotation Xrotation Zrotation
    JOINT LeftToe
    {
     OFFSET 0.000000 -4.965400 11.033500
     CHANNELS 3 Yrotation Xrotation Zrotation
     End Site
     {
      OFFSET 0.000000 -1.423100 5.872300
     }
    }
   }
  }
 }
}
MOTION
Frames: 12
Frame Time: 0.008333
0.000000 85.388000 0.000000 0.000000 -5.767877 0.000000 0.000000 11.653817 0.000000 0.000000 -5.885947 0.000000 0.000000 -0.000000 0.000000 0.000000 -0.000000 0.000000 0.000000 12.528835 0.000000 0.000000 0.711642 0.000000 0.000000 -0.000000 0.000000 0.000000 0.000000 -90.000000 0.000000 -2.309062 0.000000 0.000000 2.309062 0.000000 0.000000 -0.000000 0.000000 0.000000 -0.000000 90.000000 0.000000 -2.309062 0.000000 0.000000 2.309062 0.000000 0.000000 8.520406 0.000000 0.000000 1.905762 0.000000 -0.000000 -4.658285 0.000000 0.000000 -0.000000 0.000000 0.000000 8.520406 0.000000 0.000000 1.905762 0.000000 -0.000000 -4.658285 0.000000 0.000000 -0.000000 0.000000
-81.497937 47.105432 -11.972940 174.234382 -26.232730 -2.653421 -0.124470 22.719825 3.711243 -0.127009 3.270383 0.543019 -0.203607 5.307527 0.887444 -0.296789 19.093062 3.156683 -0.229626 15.437651 0.925270 -0.767148 -7.117646 1.810826 3.450754 0.464641 -1.866592 -8.807723 -37.128105 -26.111299 34.699057 -78.842225 -23.190822 6.133219 11.831203 -18.697716 -4.797754 -1.869411 0.962923 1.960730 -43.062206 17.852502 -59.681864 -63.037755 51.399062 -10.762917 21.914767 10.116976 -0.390250 -60.087952 -4.979744 -161.212415 80.269529 -153.005518 -6.739071 -13.266030 -4.831495 -0.039243 -0.109592 -0.007108 -4.403025 -61.779608 13.993886 -121.159840 82.618653 -125.096147 8.642271 -8.171190 4.710566 0.057216 0.143028 0.043808
-81.506477 47.100597 -11.970253 174.261941 -26.253199 -2.642261 -0.112766 22.668824 3.669445 -0.123032 3.265797 0.539333 -0.183712 5.281965 0.869724 -0.285588 19.102712 3.154461 -0.201512 15.439796 0.965165 -0.729144 -7.113551 1.874908 3.452507 0.480424 -1.809935 -8.748920 -36.882764 -26.084472 34.644818 -78.976490 -22.904778 6.169257 11.861185 -18.660055 -4.731559 -1.833690 0.966601 1.945472 -42.819662 17.746540 -59.971994 -63.145292 51.608259 -10.820752 21.939195 9.991781 -0.347156 -60.071569 -5.040890 -161.196332 80.262291 -152.998133 -6.742635 -13.276229 -4.803669 -0.043429 -0.098614 -0.015880 -4.357975 -61.766639 13.934159 -121.091548 82.627907 -125.054303 8.662285 -8.156580 4.749718 0.031751 0.138225 0.038937
-81.510848 47.097018 -11.970091 174.292737 -26.301968 -2.658775 -0.090193 22.645102 3.658500 -0.119306 3.260426 0.535635 -0.177891 5.273799 0.864014 -0.266881 19.091915 3.138744 -0.178967 15.441715 0.992690 -0.697079 -7.109938 1.917910 3.423571 0.531936 -1.737617 -8.646683 -36.662052 -26.070859 34.602947 -79.123882 -22.624176 6.208031 11.895399 -18.609162 -4.662447 -1.789385 0.970662 1.960473 -42.577166 17.619158 -60.330552 -63.260771 51.844121 -10.878593 21.965084 9.872993 -0.333007 -60.026681 -5.060853 -161.165344 80.252234 -152.968157 -6.740000 -13.273147 -4.780112 -0.051706 -0.099154 -0.017987 -4.292500 -61.737893 13.882076 -121.060964 82.610247 -124.999324 8.633952 -8.137207 4.764999 0.090503 0.128723 0.047341
-81.517616 47.095350 -11.974864 174.350786 -26.387134 -2.671230 -0.092439 22.657194 3.633548 -0.143881 3.294358 0.548410 -0.145364 5.225057 0.840505 -0.248668 19.079632 3.123865 -0.162845 15.441907 1.008222 -0.672810 -7.109637 1.941014 3.390357 0.585783 -1.666793 -8.539616 -36.433506 -26.054730 34.533536 -79.283513 -22.306422 6.242222 11.931066 -18.562568 -4.593739 -1.740158 0.976986 1.997933 -42.330819 17.476045 -60.752300 -63.388608 52.101169 -10.933950 21.993993 9.763515 -0.283357 -59.944388 -5.135500 -161.139413 80.234364 -152.932871 -6.745544 -13.263583 -4.755512 -0.046570 -0.111113 -0.013702 -4.258542 -61.662511 13.814888 -121.029692 82.603228 -124.961480 8.613128 -8.121507 4.778791 0.073580 0.120309 0.049232
-81.524084 47.089416 -11.971194 174.376249 -26.422956 -2.675141 -0.089754 22.655619 3.621143 -0.098867 3.231549 0.522152 -0.152619 5.234924 0.844243 -0.229808 19.066346 3.109757 -0.152027 15.438659 1.011525 -0.653967 -7.115885 1.943311 3.412779 0.531117 -1.654244 -8.515786 -36.086002 -25.984980 34.379879 -79.455652 -21.886037 6.272530 11.968630 -18.534506 -4.526868 -1.692935 0.986374 2.042841 -42.067493 17.330704 -61.224335 -63.533498 52.378029 -10.989701 22.018983 9.657763 -0.265211 -59.913878 -5.164127 -161.110240 80.226320 -152.912444 -6.738865 -13.267969 -4.735377 -0.045518 -0.103974 -0.015126 -4.218255 -61.638439 13.769220 -120.981490 82.596468 -124.909000 8.611729 -8.112538 4.790509 0.050045 0.120659 0.051455
-81.528622 47.083038 -11.966463 174.399540 -26.456992 -2.687749 -0.038150 22.594657 3.614265 -0.094285 3.223539 0.517948 -0.160659 5.245217 0.847641 -0.211046 19.052578 3.096305 -0.145140 15.430720 1.002184 -0.637843 -7.130871 1.923445 3.384688 0.558538 -1.599772 -8.427565 -35.836169 -25.942587 34.138721 -79.640259 -21.347693 6.301246 12.007946 -18.525418 -4.459787 -1.654261 0.996590 2.080417 -41.777029 17.198765 -61.733887 -63.700143 52.674508 -11.046177 22.036050 9.554336 -0.203707 -59.886772 -5.210108 -161.037319 80.211259 -152.815463 -6.756174 -13.266720 -4.720865 -0.027874 -0.102836 -0.008863 -4.197270 -61.615554 13.749231 -120.926781 82.589933 -124.854114 8.614691 -8.105748 4.808640 0.037637 0.123664 0.049322
-81.532498 47.078337 -11.965163 174.438042 -26.516307 -2.705609 0.000474 22.560142 3.604746 -0.105054 3.235374 0.521898 -0.155473 5.235552 0.842401 -0.194408 19.039031 3.082560 -0.139757 15.419112 0.980656 -0.620091 -7.152741 1.881399 3.382307 0.529234 -1.574168 -8.390897 -35.536881 -25.853777 33.818882 -79.837407 -20.689915 6.331470 12.044120 -18.533395 -4.390730 -1.626542 1.006191 2.099942 -41.453116 17.088943 -62.276952 -63.889877 52.996559 -11.100708 22.043572 9.455463 -0.223782 -59.828920 -5.215177 -161.019488 80.205641 -152.801352 -6.761934 -13.269763 -4.714133 -0.030471 -0.101336 -0.006399 -4.183412 -61.566454 13.721119 -120.903949 82.581809 -124.825254 8.620316 -8.101392 4.815203 0.069875 0.126667 0.052255
-81.536981 47.073379 -11.963550 174.474589 -26.575154 -2.715206 0.022390 22.543327 3.587853 -0.102252 3.228927 0.518466 -0.151007 5.225703 0.837096 -0.180495 19.025273 3.068113 -0.134055 15.405889 0.948089 -0.597649 -7.177845 1.818661 3.376863 0.495128 -1.550025 -8.360829 -35.236383 -25.742512 33.426365 -80.050687 -19.922945 6.364524 12.073595 -18.559382 -4.318846 -1.608755 1.015409 2.090978 -41.089979 17.003033 -62.854744 -64.102725 53.353340 -11.153503 22.038933 9.355799 -0.198797 -59.773993 -5.249282 -160.962780 80.194742 -152.743178 -6.776178 -13.272481 -4.702404 -0.030804 -0.097999 0.002367 -4.154646 -61.517970 13.680935 -120.876882 82.572765 -124.789310 8.591967 -8.094409 4.821722 0.073272 0.129238 0.055356
-81.543945 47.067938 -11.961425 174.524833 -26.629719 -2.712448 0.021359 22.523164 3.549247 -0.125280 3.262335 0.532363 -0.122485 5.174743 0.812848 -0.167492 19.010180 3.053505 -0.128423 15.392441 0.905418 -0.571679 -7.203534 1.737124 3.362588 0.483370 -1.515262 -8.312396 -34.952906 -25.632597 32.998388 -80.280563 -19.100839 6.392286 12.098174 -18.599234 -4.245263 -1.599322 1.025950 2.053318 -40.684716 16.935784 -63.474367 -64.342174 53.751093 -11.204284 22.022169 9.251818 -0.136862 -59.728842 -5.331093 -160.913871 80.172322 -152.695981 -6.778495 -13.268463 -4.677105 -0.033551 -0.104145 0.001312 -4.115478 -61.471446 13.613172 -120.843097 82.582202 -124.772764 8.583317 -8.082851 4.850695 0.061214 0.130248 0.052538
-81.548218 47.062471 -11.958488 174.569833 -26.682716 -2.720171 0.026950 22.502262 3.523130 -0.146483 3.295583 0.546401 -0.095420 5.122768 0.788411 -0.153765 18.993865 3.039010 -0.123393 15.378725 0.853013 -0.543305 -7.229774 1.637655 3.353976 0.472184 -1.483805 -8.257212 -34.658097 -25.521145 32.584068 -80.522636 -18.287914 6.412616 12.120396 -18.638710 -4.171620 -1.594778 1.039590 1.996232 -40.244309 16.879272 -64.128887 -64.615024 54.177507 -11.251454 21.992975 9.149865 -0.131200 -59.680082 -5.366287 -160.901906 80.162620 -152.691140 -6.772669 -13.270924 -4.666908 -0.037709 -0.101814 0.002292 -4.088053 -61.427867 13.568878 -120.787679 82.580033 -124.717187 8.553690 -8.071461 4.863820 0.059657 0.133193 0.054807
-81.551246 47.058870 -11.958651 174.631325 -26.758114 -2.737971 0.017392 22.505450 3.498815 -0.141490 3.285356 0.542063 -0.092682 5.114220 0.783909 -0.139072 18.977640 3.024676 -0.119835 15.363728 0.791461 -0.514241 -7.258420 1.521652 3.347732 0.461713 -1.452444 -8.189829 -34.353363 -25.413253 32.239024 -80.776154 -17.541135 6.433459 12.147759 -18.665174 -4.094404 -1.591193 1.056375 1.924460 -39.778282 16.832101 -64.790035 -64.931939 54.598300 -11.294484 21.956172 9.057008 -0.123840 -59.609596 -5.404054 -160.869550 80.146105 -152.662405 -6.779848 -13.263615 -4.644665 -0.038141 -0.111440 0.000484 -4.064296 -61.363351 13.521105 -120.724121 82.576889 -124.655853 8.546451 -8.055316 4.880432 0.076056 0.132281 0.051043
